<svg width="1218" height="1913" viewBox="0 0 1218 1913" fill="none" xmlns="http://www.w3.org/2000/svg">
<g opacity="0.5">
<path opacity="0.6" d="M178.096 1102.48C528.895 1059.54 893.102 965.342 991.575 892.073C1090.05 818.804 885.497 794.214 534.698 837.149C183.899 880.085 -180.308 974.287 -278.781 1047.56C-377.254 1120.83 -172.703 1145.42 178.096 1102.48Z" stroke="url(#paint0_linear_553_1868)" stroke-opacity="0.2" stroke-width="1.1" stroke-miterlimit="10"/>
<path opacity="0.6" d="M155.748 1098.91C500.71 1054.19 857.083 960.437 951.729 889.498C1046.38 818.559 843.454 797.299 498.492 842.012C153.53 886.726 -202.844 980.481 -297.49 1051.42C-392.136 1122.36 -189.215 1143.62 155.748 1098.91Z" stroke="url(#paint1_linear_553_1868)" stroke-opacity="0.2" stroke-width="2.2" stroke-miterlimit="10"/>
<path opacity="0.6" d="M133.481 1095.27C472.65 1048.75 821.235 955.412 912.07 886.789C1002.9 818.167 801.59 800.25 462.421 846.77C123.253 893.291 -225.333 986.632 -316.167 1055.25C-407.002 1123.88 -205.687 1141.79 133.481 1095.27Z" stroke="url(#paint2_linear_553_1868)" stroke-opacity="0.2" stroke-width="3.29" stroke-miterlimit="10"/>
<path opacity="0.6" d="M111.003 1091.78C444.336 1043.49 785.131 950.577 872.19 884.253C959.249 817.929 759.604 803.31 426.272 851.602C92.9389 899.893 -247.856 992.808 -334.915 1059.13C-421.974 1125.46 -222.329 1140.07 111.003 1091.78Z" stroke="url(#paint3_linear_553_1868)" stroke-opacity="0.2" stroke-width="4.39" stroke-miterlimit="10"/>
<path opacity="0.6" d="M88.4725 1088.33C415.975 1038.27 749.006 945.768 832.317 881.724C915.628 817.679 717.672 806.344 390.17 856.405C62.6668 906.467 -270.364 998.968 -353.675 1063.01C-436.987 1127.06 -239.03 1138.39 88.4725 1088.33Z" stroke="url(#paint4_linear_553_1868)" stroke-opacity="0.2" stroke-width="5.49" stroke-miterlimit="10"/>
<path opacity="0.6" d="M65.9948 1084.84C387.708 1032.98 713.025 940.855 792.61 879.071C872.196 817.288 675.914 809.242 354.201 861.101C32.4877 912.959 -292.829 1005.08 -372.415 1066.87C-452.001 1128.65 -255.718 1136.7 65.9948 1084.84Z" stroke="url(#paint5_linear_553_1868)" stroke-opacity="0.2" stroke-width="6.59" stroke-miterlimit="10"/>
<path opacity="0.6" d="M43.4898 1081.37C359.431 1027.71 677.074 935.931 752.965 876.386C828.855 816.841 634.256 812.073 318.314 865.737C2.37296 919.401 -315.27 1011.18 -391.16 1070.72C-467.051 1130.27 -272.452 1135.03 43.4898 1081.37Z" stroke="url(#paint6_linear_553_1868)" stroke-opacity="0.2" stroke-width="7.68" stroke-miterlimit="10"/>
<path opacity="0.6" d="M20.869 1077.98C331.033 1022.52 641.026 931.09 713.258 873.76C785.49 816.429 592.608 814.911 282.445 870.368C-27.719 925.826 -337.712 1017.26 -409.944 1074.59C-482.176 1131.92 -289.295 1133.44 20.869 1077.98Z" stroke="url(#paint7_linear_553_1868)" stroke-opacity="0.2" stroke-width="8.78" stroke-miterlimit="10"/>
<path opacity="0.6" d="M-1.95911 1074.73C302.395 1017.51 604.75 926.425 673.37 871.281C741.99 816.137 550.889 817.819 246.536 875.039C-57.8183 932.259 -360.173 1023.35 -428.793 1078.49C-497.413 1133.64 -306.313 1131.95 -1.95911 1074.73Z" stroke="url(#paint8_linear_553_1868)" stroke-opacity="0.2" stroke-width="9.88" stroke-miterlimit="10"/>
<path opacity="0.6" d="M-24.7477 1071.46C273.844 1012.45 568.624 921.661 633.661 868.676C698.698 815.69 509.364 820.575 210.772 879.587C-87.8203 938.599 -382.6 1029.39 -447.637 1082.38C-512.674 1135.36 -323.34 1130.48 -24.7477 1071.46Z" stroke="url(#paint9_linear_553_1868)" stroke-opacity="0.2" stroke-width="10.98" stroke-miterlimit="10"/>
<path opacity="0.6" d="M-47.6007 1068.25C245.244 1007.44 532.492 916.922 593.986 866.065C655.48 815.207 467.933 823.272 175.088 884.078C-117.757 944.884 -405.005 1035.41 -466.499 1086.26C-527.992 1137.12 -340.445 1129.06 -47.6007 1068.25Z" stroke="url(#paint10_linear_553_1868)" stroke-opacity="0.2" stroke-width="12.07" stroke-miterlimit="10"/>
<path opacity="0.6" d="M-70.4847 1065.07C216.643 1002.46 496.418 912.163 554.411 863.396C612.403 814.629 426.652 825.856 139.525 888.471C-147.603 951.086 -427.378 1041.38 -485.37 1090.14C-543.363 1138.91 -357.612 1127.69 -70.4847 1065.07Z" stroke="url(#paint11_linear_553_1868)" stroke-opacity="0.2" stroke-width="13.17" stroke-miterlimit="10"/>
<path opacity="0.6" d="M-93.3786 1061.91C188.068 997.467 460.428 907.359 514.956 860.648C569.483 813.938 385.529 828.313 104.083 892.757C-177.364 957.201 -449.724 1047.31 -504.252 1094.02C-558.779 1140.73 -374.825 1126.36 -93.3786 1061.91Z" stroke="url(#paint12_linear_553_1868)" stroke-opacity="0.2" stroke-width="14.27" stroke-miterlimit="10"/>
<path opacity="0.6" d="M-116.574 1058.97C159.157 992.742 424.128 902.813 475.255 858.111C526.382 813.408 344.304 830.86 68.5733 897.09C-207.158 963.32 -472.129 1053.25 -523.256 1097.95C-574.383 1142.65 -392.305 1125.2 -116.574 1058.97Z" stroke="url(#paint13_linear_553_1868)" stroke-opacity="0.2" stroke-width="15.37" stroke-miterlimit="10"/>
<path opacity="0.6" d="M-139.753 1056.05C130.313 988.005 387.965 898.199 435.731 855.462C483.496 812.724 303.286 833.239 33.2201 901.283C-236.845 969.327 -494.498 1059.13 -542.263 1101.87C-590.028 1144.61 -409.818 1124.09 -139.753 1056.05Z" stroke="url(#paint14_linear_553_1868)" stroke-opacity="0.2" stroke-width="16.46" stroke-miterlimit="10"/>
<path opacity="0.6" d="M-162.94 1053.17C101.507 983.289 351.912 893.547 396.356 852.726C440.8 811.905 262.452 835.463 -1.99542 905.345C-266.443 975.226 -516.848 1064.97 -561.292 1105.79C-605.736 1146.61 -427.388 1123.05 -162.94 1053.17Z" stroke="url(#paint15_linear_553_1868)" stroke-opacity="0.2" stroke-width="17.56" stroke-miterlimit="10"/>
<path opacity="0.6" d="M-186.303 1050.44C72.5325 978.739 315.739 889.027 356.913 850.068C398.087 811.109 221.637 837.655 -37.1983 909.362C-296.034 981.068 -539.24 1070.78 -580.414 1109.74C-621.588 1148.7 -445.139 1122.15 -186.303 1050.44Z" stroke="url(#paint16_linear_553_1868)" stroke-opacity="0.2" stroke-width="18.66" stroke-miterlimit="10"/>
<path opacity="0.6" d="M-209.74 1047.82C43.5209 974.282 279.591 884.544 317.538 847.389C355.484 810.234 180.937 839.731 -72.3241 913.273C-325.585 986.815 -561.656 1076.55 -599.602 1113.71C-637.549 1150.86 -463.002 1121.37 -209.74 1047.82Z" stroke="url(#paint17_linear_553_1868)" stroke-opacity="0.2" stroke-width="19.76" stroke-miterlimit="10"/>
<path opacity="0.6" d="M-233.17 1045.27C14.5725 969.865 243.575 880.033 278.321 844.624C313.067 809.215 140.4 841.638 -107.343 917.043C-355.085 992.448 -584.088 1082.28 -618.834 1117.69C-653.58 1153.1 -480.913 1120.67 -233.17 1045.27Z" stroke="url(#paint18_linear_553_1868)" stroke-opacity="0.2" stroke-width="20.85" stroke-miterlimit="10"/>
<path opacity="0.6" d="M-256.641 1042.82C-14.3712 965.541 207.619 875.554 239.187 841.831C270.756 808.108 99.9493 843.419 -142.32 920.701C-384.59 997.982 -606.579 1087.97 -638.148 1121.69C-669.717 1155.41 -498.91 1120.1 -256.641 1042.82Z" stroke="url(#paint19_linear_553_1868)" stroke-opacity="0.2" stroke-width="21.95" stroke-miterlimit="10"/>
<path opacity="0.6" d="M-280.206 1040.54C-43.3727 961.375 171.644 871.182 200.047 839.084C228.45 806.985 59.4845 845.137 -177.348 924.297C-414.181 1003.46 -629.198 1093.65 -657.601 1125.75C-686.004 1157.85 -517.039 1119.7 -280.206 1040.54Z" stroke="url(#paint20_linear_553_1868)" stroke-opacity="0.2" stroke-width="23.05" stroke-miterlimit="10"/>
<path opacity="0.6" d="M-303.653 1038.3C-72.182 957.224 135.902 866.751 161.115 836.223C186.329 805.695 19.1235 846.672 -212.348 927.749C-443.819 1008.83 -651.903 1099.3 -677.116 1129.83C-702.329 1160.35 -535.124 1119.38 -303.653 1038.3Z" stroke="url(#paint21_linear_553_1868)" stroke-opacity="0.2" stroke-width="24.15" stroke-miterlimit="10"/>
<path opacity="0.6" d="M-327.029 1036.16C-100.86 953.144 100.299 862.334 122.271 833.33C144.244 804.326 -21.2893 848.111 -247.458 931.126C-473.627 1014.14 -674.786 1104.95 -696.758 1133.96C-718.731 1162.96 -553.198 1119.17 -327.029 1036.16Z" stroke="url(#paint22_linear_553_1868)" stroke-opacity="0.2" stroke-width="25.24" stroke-miterlimit="10"/>
<path opacity="0.6" d="M-350.311 1034.13C-129.381 949.152 64.8345 857.961 83.4808 830.445C102.127 802.928 -61.8567 849.507 -282.787 934.481C-503.718 1019.45 -697.933 1110.65 -716.579 1138.16C-735.226 1165.68 -571.242 1119.1 -350.311 1034.13Z" stroke="url(#paint23_linear_553_1868)" stroke-opacity="0.2" stroke-width="26.34" stroke-miterlimit="10"/>
<path opacity="0.6" d="M-373.233 1032.06C-157.452 945.07 29.7627 853.45 44.9231 827.417C60.0835 801.384 -102.551 850.796 -318.332 937.781C-534.112 1024.77 -721.327 1116.39 -736.487 1142.42C-751.648 1168.45 -589.013 1119.04 -373.233 1032.06Z" stroke="url(#paint24_linear_553_1868)" stroke-opacity="0.2" stroke-width="27.44" stroke-miterlimit="10"/>
<path opacity="0.6" d="M-395.816 1029.98C-185.116 940.942 -5.01659 848.88 6.44582 824.35C17.9082 799.82 -143.606 852.11 -354.307 941.143C-565.008 1030.18 -745.107 1122.24 -756.569 1146.77C-768.032 1171.3 -606.517 1119.01 -395.816 1029.98Z" stroke="url(#paint25_linear_553_1868)" stroke-opacity="0.2" stroke-width="28.54" stroke-miterlimit="10"/>
</g>
<defs>
<linearGradient id="paint0_linear_553_1868" x1="191.071" y1="791.637" x2="415.629" y2="1207.4" gradientUnits="userSpaceOnUse">
<stop stop-color="white"/>
<stop offset="1" stop-color="#231F20"/>
</linearGradient>
<linearGradient id="paint1_linear_553_1868" x1="150.549" y1="805.068" x2="372.545" y2="1211.5" gradientUnits="userSpaceOnUse">
<stop stop-color="white"/>
<stop offset="1" stop-color="#231F20"/>
</linearGradient>
<linearGradient id="paint2_linear_553_1868" x1="107.637" y1="817.389" x2="324.784" y2="1210.11" gradientUnits="userSpaceOnUse">
<stop stop-color="white"/>
<stop offset="1" stop-color="#231F20"/>
</linearGradient>
<linearGradient id="paint3_linear_553_1868" x1="65.425" y1="831.568" x2="280.353" y2="1215.14" gradientUnits="userSpaceOnUse">
<stop stop-color="white"/>
<stop offset="1" stop-color="#231F20"/>
</linearGradient>
<linearGradient id="paint4_linear_553_1868" x1="22.3111" y1="846.182" x2="235.303" y2="1220.74" gradientUnits="userSpaceOnUse">
<stop stop-color="white"/>
<stop offset="1" stop-color="#231F20"/>
</linearGradient>
<linearGradient id="paint5_linear_553_1868" x1="-21.9687" y1="861.35" x2="189.386" y2="1227.03" gradientUnits="userSpaceOnUse">
<stop stop-color="white"/>
<stop offset="1" stop-color="#231F20"/>
</linearGradient>
<linearGradient id="paint6_linear_553_1868" x1="-67.3035" y1="877.036" x2="142.798" y2="1233.97" gradientUnits="userSpaceOnUse">
<stop stop-color="white"/>
<stop offset="1" stop-color="#231F20"/>
</linearGradient>
<linearGradient id="paint7_linear_553_1868" x1="-113.046" y1="895.796" x2="99.3026" y2="1249.31" gradientUnits="userSpaceOnUse">
<stop stop-color="white"/>
<stop offset="1" stop-color="#231F20"/>
</linearGradient>
<linearGradient id="paint8_linear_553_1868" x1="-161.386" y1="913.181" x2="50.735" y2="1258.36" gradientUnits="userSpaceOnUse">
<stop stop-color="white"/>
<stop offset="1" stop-color="#231F20"/>
</linearGradient>
<linearGradient id="paint9_linear_553_1868" x1="-211.017" y1="931.225" x2="1.50288" y2="1268.14" gradientUnits="userSpaceOnUse">
<stop stop-color="white"/>
<stop offset="1" stop-color="#231F20"/>
</linearGradient>
<linearGradient id="paint10_linear_553_1868" x1="-261.781" y1="953.282" x2="-44.3843" y2="1287.78" gradientUnits="userSpaceOnUse">
<stop stop-color="white"/>
<stop offset="1" stop-color="#231F20"/>
</linearGradient>
<linearGradient id="paint11_linear_553_1868" x1="-314.143" y1="972.981" x2="-94.5408" y2="1299.34" gradientUnits="userSpaceOnUse">
<stop stop-color="white"/>
<stop offset="1" stop-color="#231F20"/>
</linearGradient>
<linearGradient id="paint12_linear_553_1868" x1="-367.593" y1="997.135" x2="-140.216" y2="1321.53" gradientUnits="userSpaceOnUse">
<stop stop-color="white"/>
<stop offset="1" stop-color="#231F20"/>
</linearGradient>
<linearGradient id="paint13_linear_553_1868" x1="-421.691" y1="1022.12" x2="-184.426" y2="1344.64" gradientUnits="userSpaceOnUse">
<stop stop-color="white"/>
<stop offset="1" stop-color="#231F20"/>
</linearGradient>
<linearGradient id="paint14_linear_553_1868" x1="-474.716" y1="1046.94" x2="-224.653" y2="1367.38" gradientUnits="userSpaceOnUse">
<stop stop-color="white"/>
<stop offset="1" stop-color="#231F20"/>
</linearGradient>
<linearGradient id="paint15_linear_553_1868" x1="-526.991" y1="1076.44" x2="-253.857" y2="1401.69" gradientUnits="userSpaceOnUse">
<stop stop-color="white"/>
<stop offset="1" stop-color="#231F20"/>
</linearGradient>
<linearGradient id="paint16_linear_553_1868" x1="-574.634" y1="1103.86" x2="-271.186" y2="1432.89" gradientUnits="userSpaceOnUse">
<stop stop-color="white"/>
<stop offset="1" stop-color="#231F20"/>
</linearGradient>
<linearGradient id="paint17_linear_553_1868" x1="-614.319" y1="1126.46" x2="-269.937" y2="1456.04" gradientUnits="userSpaceOnUse">
<stop stop-color="white"/>
<stop offset="1" stop-color="#231F20"/>
</linearGradient>
<linearGradient id="paint18_linear_553_1868" x1="-646.557" y1="1149.48" x2="-234.145" y2="1480.23" gradientUnits="userSpaceOnUse">
<stop stop-color="white"/>
<stop offset="1" stop-color="#231F20"/>
</linearGradient>
<linearGradient id="paint19_linear_553_1868" x1="-669.983" y1="1171.69" x2="-146.471" y2="1490.78" gradientUnits="userSpaceOnUse">
<stop stop-color="white"/>
<stop offset="1" stop-color="#231F20"/>
</linearGradient>
<linearGradient id="paint20_linear_553_1868" x1="-681.426" y1="1183.24" x2="-4.4294" y2="1429.88" gradientUnits="userSpaceOnUse">
<stop stop-color="white"/>
<stop offset="1" stop-color="#231F20"/>
</linearGradient>
<linearGradient id="paint21_linear_553_1868" x1="-683.64" y1="1183.95" x2="146.137" y2="1217.52" gradientUnits="userSpaceOnUse">
<stop stop-color="white"/>
<stop offset="1" stop-color="#231F20"/>
</linearGradient>
<linearGradient id="paint22_linear_553_1868" x1="-682.362" y1="1183.63" x2="131.211" y2="852.657" gradientUnits="userSpaceOnUse">
<stop stop-color="white"/>
<stop offset="1" stop-color="#231F20"/>
</linearGradient>
<linearGradient id="paint23_linear_553_1868" x1="-680.179" y1="1183.73" x2="-138.519" y2="608.597" gradientUnits="userSpaceOnUse">
<stop stop-color="white"/>
<stop offset="1" stop-color="#231F20"/>
</linearGradient>
<linearGradient id="paint24_linear_553_1868" x1="-678.965" y1="1178.53" x2="-408.257" y2="604.304" gradientUnits="userSpaceOnUse">
<stop stop-color="white"/>
<stop offset="1" stop-color="#231F20"/>
</linearGradient>
<linearGradient id="paint25_linear_553_1868" x1="-681.821" y1="1170.87" x2="-562.566" y2="680.407" gradientUnits="userSpaceOnUse">
<stop stop-color="white"/>
<stop offset="1" stop-color="#231F20"/>
</linearGradient>
</defs>
</svg>
