<svg width="1280" height="4180" viewBox="0 0 1280 4180" fill="none" xmlns="http://www.w3.org/2000/svg">
<g opacity="0.5">
<path opacity="0.6" d="M360.137 1389.57C97.171 1859.94 -114.772 2392.97 -113.252 2580.11C-111.732 2767.26 102.676 2537.66 365.642 2067.29C628.608 1596.92 840.551 1063.9 839.031 876.755C837.511 689.607 623.103 919.204 360.137 1389.57Z" stroke="url(#paint0_linear_645_3)" stroke-opacity="0.2" stroke-width="1.1" stroke-miterlimit="10"/>
<path opacity="0.6" d="M384.655 1365.29C129.132 1830.08 -76.3096 2353.05 -74.2119 2533.4C-72.1142 2713.74 136.729 2483.15 392.252 2018.36C647.775 1553.57 853.216 1030.59 851.119 850.253C849.021 669.912 640.178 900.502 384.655 1365.29Z" stroke="url(#paint1_linear_645_3)" stroke-opacity="0.2" stroke-width="2.2" stroke-miterlimit="10"/>
<path opacity="0.6" d="M409.169 1341.15C161.086 1800.44 -37.8538 2313.46 -35.1753 2487.03C-32.4969 2660.59 170.786 2428.97 418.869 1969.68C666.952 1510.4 865.892 997.378 863.213 823.814C860.535 650.25 657.252 881.871 409.169 1341.15Z" stroke="url(#paint2_linear_645_3)" stroke-opacity="0.2" stroke-width="3.29" stroke-miterlimit="10"/>
<path opacity="0.6" d="M433.701 1316.63C193.051 1770.33 0.598869 2273.38 3.84781 2440.23C7.09676 2607.08 204.816 2374.54 445.466 1920.85C686.117 1467.15 878.568 964.101 875.319 797.252C872.07 630.403 674.351 862.939 433.701 1316.63Z" stroke="url(#paint3_linear_645_3)" stroke-opacity="0.2" stroke-width="4.39" stroke-miterlimit="10"/>
<path opacity="0.6" d="M458.234 1292.01C225.01 1740.13 39.0392 2233.25 42.856 2393.44C46.6728 2553.62 238.832 2320.21 472.056 1872.09C705.279 1423.98 891.25 930.855 887.433 770.671C883.617 610.487 691.457 843.9 458.234 1292.01Z" stroke="url(#paint4_linear_645_3)" stroke-opacity="0.2" stroke-width="5.49" stroke-miterlimit="10"/>
<path opacity="0.6" d="M482.766 1267.5C256.966 1710.1 77.4771 2193.4 81.8655 2346.96C86.2539 2500.52 272.858 2266.21 498.657 1823.6C724.457 1380.99 903.946 897.701 899.558 744.137C895.169 590.573 708.565 824.889 482.766 1267.5Z" stroke="url(#paint5_linear_645_3)" stroke-opacity="0.2" stroke-width="6.59" stroke-miterlimit="10"/>
<path opacity="0.6" d="M507.296 1242.92C288.914 1680.05 115.901 2153.58 120.861 2300.59C125.821 2447.59 306.876 2212.39 525.258 1775.26C743.64 1338.13 916.652 864.602 911.692 717.6C906.732 570.599 725.678 805.794 507.296 1242.92Z" stroke="url(#paint6_linear_645_3)" stroke-opacity="0.2" stroke-width="7.68" stroke-miterlimit="10"/>
<path opacity="0.6" d="M531.831 1218.13C320.858 1649.77 154.312 2113.58 159.84 2254.08C165.368 2394.59 340.877 2158.58 551.851 1726.95C762.824 1295.32 929.37 831.505 923.842 691C918.314 550.495 742.805 786.501 531.831 1218.13Z" stroke="url(#paint7_linear_645_3)" stroke-opacity="0.2" stroke-width="8.78" stroke-miterlimit="10"/>
<path opacity="0.6" d="M556.376 1192.96C352.802 1619.03 192.709 2073.14 198.799 2207.23C204.888 2341.32 374.855 2104.62 578.429 1678.55C782.003 1252.48 942.096 798.381 936.006 664.289C929.917 530.198 759.95 766.893 556.376 1192.96Z" stroke="url(#paint8_linear_645_3)" stroke-opacity="0.2" stroke-width="9.88" stroke-miterlimit="10"/>
<path opacity="0.6" d="M580.916 1167.86C384.734 1588.46 231.094 2032.97 237.752 2160.7C244.411 2288.44 408.845 2051.04 605.028 1630.45C801.21 1209.85 954.85 765.343 948.191 637.604C941.533 509.866 777.098 747.271 580.916 1167.86Z" stroke="url(#paint9_linear_645_3)" stroke-opacity="0.2" stroke-width="10.98" stroke-miterlimit="10"/>
<path opacity="0.6" d="M605.445 1142.63C416.645 1557.77 269.453 1992.77 276.683 2114.23C283.912 2235.69 442.826 1997.62 631.625 1582.49C820.425 1167.35 967.617 732.354 960.387 610.891C953.158 489.428 794.245 727.497 605.445 1142.63Z" stroke="url(#paint10_linear_645_3)" stroke-opacity="0.2" stroke-width="12.07" stroke-miterlimit="10"/>
<path opacity="0.6" d="M629.959 1117.33C448.532 1527.06 307.786 1952.65 315.594 2067.93C323.402 2183.2 476.808 1944.49 658.235 1534.77C839.662 1125.04 980.408 699.443 972.599 584.172C964.791 468.9 811.386 707.604 629.959 1117.33Z" stroke="url(#paint11_linear_645_3)" stroke-opacity="0.2" stroke-width="13.17" stroke-miterlimit="10"/>
<path opacity="0.6" d="M654.457 1092C480.395 1496.38 346.098 1912.69 354.495 2021.84C362.892 2131 510.804 1891.67 684.866 1487.29C858.927 1082.91 993.225 666.603 984.828 557.447C976.431 448.291 828.519 687.619 654.457 1092Z" stroke="url(#paint12_linear_645_3)" stroke-opacity="0.2" stroke-width="14.27" stroke-miterlimit="10"/>
<path opacity="0.6" d="M678.956 1066.1C512.238 1465.06 384.372 1872.11 393.359 1975.27C402.345 2078.43 544.783 1838.65 711.501 1439.69C878.219 1040.73 1006.09 633.683 997.099 530.52C988.112 427.356 845.675 667.144 678.956 1066.1Z" stroke="url(#paint13_linear_645_3)" stroke-opacity="0.2" stroke-width="15.37" stroke-miterlimit="10"/>
<path opacity="0.6" d="M703.419 1040.21C544.034 1433.82 422.605 1831.76 432.2 1929.01C441.796 2026.27 578.782 1786.02 738.167 1392.41C897.553 998.79 1018.98 600.857 1009.39 503.6C999.791 406.343 862.805 646.59 703.419 1040.21Z" stroke="url(#paint14_linear_645_3)" stroke-opacity="0.2" stroke-width="16.46" stroke-miterlimit="10"/>
<path opacity="0.6" d="M727.838 1014.26C575.772 1402.62 460.788 1791.57 471.014 1883.02C481.241 1974.46 612.805 1733.77 764.872 1345.41C916.938 957.054 1031.92 568.098 1021.7 476.654C1011.47 385.21 879.904 625.905 727.838 1014.26Z" stroke="url(#paint15_linear_645_3)" stroke-opacity="0.2" stroke-width="17.56" stroke-miterlimit="10"/>
<path opacity="0.6" d="M752.224 987.964C607.455 1371.06 498.916 1751.13 509.794 1836.87C520.673 1922.62 646.85 1681.57 791.619 1298.47C936.388 915.378 1044.93 535.309 1034.05 449.565C1023.17 363.821 896.993 604.87 752.224 987.964Z" stroke="url(#paint16_linear_645_3)" stroke-opacity="0.2" stroke-width="18.66" stroke-miterlimit="10"/>
<path opacity="0.6" d="M776.549 961.48C639.057 1339.37 536.974 1710.68 548.538 1790.82C560.103 1870.97 680.936 1629.61 818.427 1251.72C955.919 873.836 1058 502.526 1046.44 422.377C1034.87 342.229 914.04 583.593 776.549 961.48Z" stroke="url(#paint17_linear_645_3)" stroke-opacity="0.2" stroke-width="19.76" stroke-miterlimit="10"/>
<path opacity="0.6" d="M800.785 934.946C670.554 1307.72 574.949 1670.41 587.245 1745.05C599.542 1819.69 715.083 1578 845.313 1205.23C975.544 832.461 1071.15 469.764 1058.85 395.127C1046.56 320.489 931.016 562.174 800.785 934.946Z" stroke="url(#paint18_linear_645_3)" stroke-opacity="0.2" stroke-width="20.85" stroke-miterlimit="10"/>
<path opacity="0.6" d="M824.925 908.264C701.931 1275.99 612.83 1630.19 625.912 1699.4C638.994 1768.61 749.306 1526.62 872.3 1158.89C995.294 791.168 1084.4 436.962 1071.31 367.753C1058.23 298.543 947.919 540.538 824.925 908.264Z" stroke="url(#paint19_linear_645_3)" stroke-opacity="0.2" stroke-width="21.95" stroke-miterlimit="10"/>
<path opacity="0.6" d="M848.953 881.322C733.166 1244.05 650.596 1589.86 664.529 1653.71C678.462 1717.56 783.621 1475.28 899.408 1112.55C1015.2 749.822 1097.77 404.013 1083.83 340.161C1069.9 276.31 964.741 518.596 848.953 881.322Z" stroke="url(#paint20_linear_645_3)" stroke-opacity="0.2" stroke-width="23.05" stroke-miterlimit="10"/>
<path opacity="0.6" d="M872.813 854.478C764.21 1212.33 688.227 1549.86 703.098 1608.37C717.97 1666.88 818.065 1424.22 926.668 1066.37C1035.27 708.515 1111.25 370.985 1096.38 312.473C1081.51 253.961 981.416 496.625 872.813 854.478Z" stroke="url(#paint21_linear_645_3)" stroke-opacity="0.2" stroke-width="24.15" stroke-miterlimit="10"/>
<path opacity="0.6" d="M896.492 827.638C795.049 1180.71 725.714 1510.02 741.627 1563.17C757.541 1616.33 852.677 1373.19 954.119 1020.12C1055.56 667.045 1124.9 337.735 1108.98 284.583C1093.07 231.431 997.934 474.565 896.492 827.638Z" stroke="url(#paint22_linear_645_3)" stroke-opacity="0.2" stroke-width="25.24" stroke-miterlimit="10"/>
<path opacity="0.6" d="M919.954 800.815C825.637 1149.2 763.022 1470.31 780.099 1518.03C797.176 1565.75 887.479 1322.01 981.796 973.62C1076.11 625.23 1138.73 304.121 1121.65 256.403C1104.57 208.684 1014.27 452.425 919.954 800.815Z" stroke="url(#paint23_linear_645_3)" stroke-opacity="0.2" stroke-width="26.34" stroke-miterlimit="10"/>
<path opacity="0.6" d="M943.138 774.471C855.932 1118.33 800.147 1431.21 818.536 1473.31C836.926 1515.4 922.528 1270.77 1009.73 926.905C1096.94 583.043 1152.72 270.164 1134.33 228.07C1115.94 185.977 1030.34 430.609 943.138 774.471Z" stroke="url(#paint24_linear_645_3)" stroke-opacity="0.2" stroke-width="27.44" stroke-miterlimit="10"/>
<path opacity="0.6" d="M966.028 748.551C885.916 1088.01 837.08 1392.53 856.95 1428.71C876.819 1464.9 957.87 1219.06 1037.98 879.605C1118.09 540.15 1166.93 235.631 1147.06 199.441C1127.19 163.251 1046.14 409.096 966.028 748.551Z" stroke="url(#paint25_linear_645_3)" stroke-opacity="0.2" stroke-width="28.54" stroke-miterlimit="10"/>
<path opacity="0.6" d="M988.56 723.571C915.546 1058.78 873.815 1354.71 895.353 1384.56C916.89 1414.41 993.539 1166.86 1066.55 831.653C1139.57 496.444 1181.3 200.509 1159.76 170.663C1138.22 140.817 1061.57 388.362 988.56 723.571Z" stroke="url(#paint26_linear_645_3)" stroke-opacity="0.2" stroke-width="29.63" stroke-miterlimit="10"/>
<path opacity="0.6" d="M1010.77 699.359C944.851 1030.42 910.378 1317.41 933.774 1340.36C957.17 1363.31 1029.58 1113.53 1095.5 782.467C1161.42 451.401 1195.89 164.414 1172.49 141.464C1149.1 118.515 1076.69 368.292 1010.77 699.359Z" stroke="url(#paint27_linear_645_3)" stroke-opacity="0.2" stroke-width="30.73" stroke-miterlimit="10"/>
<path opacity="0.6" d="M1032.6 676.735C973.825 1003.79 946.811 1281.31 972.264 1296.6C997.718 1311.89 1066 1059.16 1124.78 732.104C1183.55 405.051 1210.57 127.527 1185.11 112.237C1159.66 96.9477 1091.38 349.682 1032.6 676.735Z" stroke="url(#paint28_linear_645_3)" stroke-opacity="0.2" stroke-width="31.83" stroke-miterlimit="10"/>
<path opacity="0.6" d="M1054.14 655.508C1002.56 978.601 983.18 1246 1010.86 1252.76C1038.55 1259.53 1102.81 1003.09 1154.39 679.994C1205.97 356.901 1225.35 89.5001 1197.67 82.7383C1169.98 75.9766 1105.73 332.414 1054.14 655.508Z" stroke="url(#paint29_linear_645_3)" stroke-opacity="0.2" stroke-width="32.93" stroke-miterlimit="10"/>
<path opacity="0.6" d="M1210.02 53.4195C1179.96 56.2013 1119.7 317.157 1075.41 636.281C1031.13 955.404 1019.59 1211.85 1049.64 1209.07C1079.7 1206.29 1139.96 945.33 1184.25 626.207C1228.54 307.083 1240.07 50.6378 1210.02 53.4195Z" stroke="url(#paint30_linear_645_3)" stroke-opacity="0.2" stroke-width="34.02" stroke-miterlimit="10"/>
<path opacity="0.6" d="M1222.14 24.2141C1189.64 37.5873 1133.4 303.832 1096.54 618.889C1059.67 933.945 1056.14 1178.51 1088.64 1165.13C1121.15 1151.76 1177.38 885.517 1214.25 570.46C1251.11 255.404 1254.65 10.841 1222.14 24.2141Z" stroke="url(#paint31_linear_645_3)" stroke-opacity="0.2" stroke-width="35.12" stroke-miterlimit="10"/>
</g>
<g opacity="0.2">
<path opacity="0.2" d="M752.531 4121.12C1243.06 4153.39 1646.3 4120.6 1653.18 4047.89C1660.07 3975.18 1268 3890.08 777.469 3857.81C286.939 3825.55 -116.297 3858.33 -123.184 3931.04C-130.071 4003.75 262 4088.85 752.531 4121.12Z" stroke="url(#paint32_linear_645_3)" stroke-width="9.44" stroke-miterlimit="10"/>
<path opacity="0.2" d="M731.688 4085.97C1210.2 4125.58 1604.95 4099.89 1613.39 4028.61C1621.83 3957.32 1240.76 3867.42 762.25 3827.81C283.74 3788.21 -111.011 3813.89 -119.45 3885.17C-127.89 3956.46 253.178 4046.36 731.688 4085.97Z" stroke="url(#paint33_linear_645_3)" stroke-width="9.93" stroke-miterlimit="10"/>
<path opacity="0.2" d="M710.927 4050.9C1177.45 4097.82 1563.76 4079.16 1573.77 4009.22C1583.79 3939.28 1213.72 3844.54 747.196 3797.62C280.675 3750.69 -105.634 3769.36 -115.649 3839.3C-125.665 3909.24 244.406 4003.98 710.927 4050.9Z" stroke="url(#paint34_linear_645_3)" stroke-width="10.41" stroke-miterlimit="10"/>
<path opacity="0.2" d="M690.349 4015.91C1144.91 4070.11 1522.83 4058.37 1534.45 3989.69C1546.07 3921.01 1186.99 3821.39 732.427 3767.2C277.862 3713 -100.054 3724.74 -111.674 3793.42C-123.293 3862.1 235.785 3961.71 690.349 4015.91Z" stroke="url(#paint35_linear_645_3)" stroke-width="10.9" stroke-miterlimit="10"/>
<path opacity="0.2" d="M669.636 3981.1C1112.28 4042.58 1481.87 4037.71 1495.14 3970.2C1508.41 3902.7 1160.33 3798.13 717.693 3736.65C275.051 3675.16 -94.5382 3680.04 -107.809 3747.54C-121.079 3815.04 226.994 3919.61 669.636 3981.1Z" stroke="url(#paint36_linear_645_3)" stroke-width="11.39" stroke-miterlimit="10"/>
<path opacity="0.2" d="M648.447 3946.53C1079.18 4015.36 1440.51 4017.33 1455.5 3950.92C1470.49 3884.51 1133.46 3774.87 702.728 3706.03C271.993 3637.19 -89.3388 3635.23 -104.328 3701.64C-119.318 3768.05 217.711 3877.69 648.447 3946.53Z" stroke="url(#paint37_linear_645_3)" stroke-width="11.88" stroke-miterlimit="10"/>
<path opacity="0.2" d="M627.301 3912.08C1046.17 3988.24 1399.32 3996.96 1416.09 3931.55C1432.86 3866.14 1106.9 3751.37 688.029 3675.2C269.161 3599.04 -83.9929 3590.32 -100.763 3655.73C-117.532 3721.15 208.433 3835.92 627.301 3912.08Z" stroke="url(#paint38_linear_645_3)" stroke-width="12.37" stroke-miterlimit="10"/>
<path opacity="0.2" d="M606.278 3877.76C1013.32 3961.22 1358.39 3976.58 1377.01 3912.08C1395.63 3847.57 1080.75 3727.63 673.71 3644.17C266.666 3560.71 -78.4028 3545.35 -97.0237 3609.85C-115.645 3674.36 199.234 3794.3 606.278 3877.76Z" stroke="url(#paint39_linear_645_3)" stroke-width="12.85" stroke-miterlimit="10"/>
<path opacity="0.2" d="M585.02 3843.63C980.277 3934.4 1317.37 3956.35 1337.94 3892.66C1358.51 3828.96 1054.76 3703.75 659.506 3612.98C264.25 3522.21 -72.8431 3500.26 -93.4116 3563.96C-113.98 3627.65 189.764 3752.86 585.02 3843.63Z" stroke="url(#paint40_linear_645_3)" stroke-width="13.34" stroke-miterlimit="10"/>
<path opacity="0.2" d="M563.155 3809.69C946.643 3907.83 1275.87 3936.35 1298.51 3873.38C1321.14 3810.42 1028.62 3679.82 645.129 3581.67C261.641 3483.53 -67.5878 3455.02 -90.2242 3517.98C-112.861 3580.95 179.667 3711.55 563.155 3809.69Z" stroke="url(#paint41_linear_645_3)" stroke-width="13.83" stroke-miterlimit="10"/>
<path opacity="0.2" d="M541.61 3775.9C913.392 3881.35 1234.9 3916.3 1259.71 3853.97C1284.53 3791.63 1003.25 3655.61 631.472 3550.16C259.69 3444.71 -61.8161 3409.76 -86.6309 3472.09C-111.446 3534.43 169.827 3670.44 541.61 3775.9Z" stroke="url(#paint42_linear_645_3)" stroke-width="14.32" stroke-miterlimit="10"/>
<path opacity="0.2" d="M519.545 3742.26C879.647 3855.07 1193.57 3896.43 1220.72 3834.65C1247.86 3772.86 977.942 3631.33 617.84 3518.52C257.737 3405.71 -56.1872 3364.35 -83.3306 3426.13C-110.474 3487.92 159.443 3629.45 519.545 3742.26Z" stroke="url(#paint43_linear_645_3)" stroke-width="14.8" stroke-miterlimit="10"/>
<path opacity="0.2" d="M496.975 3708.75C845.422 3828.96 1151.92 3876.7 1181.56 3815.39C1211.2 3754.08 952.753 3606.94 604.306 3486.73C255.858 3366.53 -50.6412 3318.79 -80.2799 3380.09C-109.919 3441.4 148.527 3588.55 496.975 3708.75Z" stroke="url(#paint44_linear_645_3)" stroke-width="15.29" stroke-miterlimit="10"/>
<path opacity="0.2" d="M474.338 3675.38C811.179 3802.96 1110.43 3857.02 1142.74 3796.11C1175.05 3735.21 928.174 3582.41 591.333 3454.82C254.491 3327.23 -44.7629 3273.18 -77.0702 3334.08C-109.377 3394.99 137.496 3547.79 474.338 3675.38Z" stroke="url(#paint45_linear_645_3)" stroke-width="15.78" stroke-miterlimit="10"/>
<path opacity="0.2" d="M451.159 3642.08C776.416 3777.09 1068.61 3837.44 1103.79 3776.89C1138.96 3716.33 903.81 3557.8 578.553 3422.79C253.296 3287.78 -38.8955 3227.42 -74.0744 3287.98C-109.253 3348.53 125.902 3507.07 451.159 3642.08Z" stroke="url(#paint46_linear_645_3)" stroke-width="16.27" stroke-miterlimit="10"/>
<path opacity="0.2" d="M427.831 3608.88C741.549 3751.31 1026.88 3817.94 1065.14 3757.69C1103.4 3697.45 880.094 3533.15 566.376 3390.72C252.658 3248.29 -32.6751 3181.67 -70.9333 3241.91C-109.192 3302.15 114.113 3466.45 427.831 3608.88Z" stroke="url(#paint47_linear_645_3)" stroke-width="16.76" stroke-miterlimit="10"/>
<path opacity="0.2" d="M403.844 3575.68C706.032 3725.58 984.71 3798.51 1026.29 3738.56C1067.87 3678.61 856.6 3508.48 554.412 3358.58C252.224 3208.67 -26.4538 3135.75 -68.032 3195.7C-109.61 3255.65 101.656 3425.77 403.844 3575.68Z" stroke="url(#paint48_linear_645_3)" stroke-width="17.24" stroke-miterlimit="10"/>
<path opacity="0.2" d="M379.522 3542.49C670.2 3699.89 942.434 3779.13 987.573 3719.48C1032.71 3659.82 833.663 3483.86 542.985 3326.46C252.307 3169.05 -19.927 3089.81 -65.0662 3149.47C-110.205 3209.12 88.8434 3385.08 379.522 3542.49Z" stroke="url(#paint49_linear_645_3)" stroke-width="17.73" stroke-miterlimit="10"/>
<path opacity="0.2" d="M354.74 3509.22C633.917 3674.16 899.92 3759.78 948.874 3700.46C997.828 3641.13 811.195 3459.33 532.018 3294.39C252.841 3129.44 -13.1618 3043.83 -62.1159 3103.15C-111.07 3162.48 75.5627 3344.28 354.74 3509.22Z" stroke="url(#paint50_linear_645_3)" stroke-width="18.22" stroke-miterlimit="10"/>
<path opacity="0.2" d="M329.742 3475.98C597.438 3648.47 857.434 3740.52 910.459 3681.58C963.484 3622.63 789.459 3435.01 521.763 3262.52C254.067 3090.02 -5.92884 2997.97 -58.9541 3056.92C-111.979 3115.86 62.0456 3303.48 329.742 3475.98Z" stroke="url(#paint51_linear_645_3)" stroke-width="18.71" stroke-miterlimit="10"/>
<path opacity="0.2" d="M303.957 3442.44C560.127 3622.57 814.299 3721.2 871.666 3662.73C929.033 3604.26 767.871 3410.84 511.701 3230.71C255.531 3050.58 1.35922 2951.96 -56.0077 3010.42C-113.375 3068.89 47.7873 3262.31 303.957 3442.44Z" stroke="url(#paint52_linear_645_3)" stroke-width="19.2" stroke-miterlimit="10"/>
<path opacity="0.2" d="M277.614 3408.6C522.214 3596.43 770.735 3701.78 832.702 3643.92C894.668 3586.07 746.615 3386.9 502.015 3199.08C257.415 3011.25 8.89357 2905.9 -53.0731 2963.75C-115.04 3021.61 33.0138 3220.78 277.614 3408.6Z" stroke="url(#paint53_linear_645_3)" stroke-width="19.68" stroke-miterlimit="10"/>
<path opacity="0.2" d="M251.24 3374.73C484.266 3570.26 727.323 3682.48 794.124 3625.37C860.925 3568.27 726.173 3363.47 493.147 3167.93C260.122 2972.4 17.0639 2860.18 -49.737 2917.29C-116.538 2974.39 18.2141 3179.19 251.24 3374.73Z" stroke="url(#paint54_linear_645_3)" stroke-width="20.17" stroke-miterlimit="10"/>
<path opacity="0.2" d="M224.25 3340.38C445.615 3543.7 683.325 3663 755.191 3606.85C827.057 3550.7 705.864 3340.36 484.499 3137.04C263.135 2933.73 25.4243 2814.43 -46.4414 2870.58C-118.307 2926.73 2.88579 3137.07 224.25 3340.38Z" stroke="url(#paint55_linear_645_3)" stroke-width="20.66" stroke-miterlimit="10"/>
<path opacity="0.2" d="M196.785 3305.56C406.392 3516.73 638.843 3643.35 715.977 3588.38C793.112 3533.41 685.722 3317.66 476.115 3106.49C266.507 2895.33 34.0568 2768.7 -43.0779 2823.67C-120.213 2878.65 -12.8224 3094.39 196.785 3305.56Z" stroke="url(#paint56_linear_645_3)" stroke-width="21.15" stroke-miterlimit="10"/>
<path opacity="0.2" d="M168.976 3270.23C366.716 3489.31 593.954 3623.5 676.527 3569.96C759.1 3516.42 665.739 3295.43 467.999 3076.35C270.26 2857.28 43.0214 2723.08 -39.5515 2776.62C-122.124 2830.16 -28.7633 3051.16 168.976 3270.23Z" stroke="url(#paint57_linear_645_3)" stroke-width="21.63" stroke-miterlimit="10"/>
<path opacity="0.2" d="M141.217 3234.68C327.014 3461.68 549.076 3603.67 637.207 3551.83C725.338 3499.99 646.164 3273.94 460.367 3046.94C274.57 2819.93 52.507 2677.94 -35.6238 2729.78C-123.755 2781.63 -44.5805 3007.67 141.217 3234.68Z" stroke="url(#paint58_linear_645_3)" stroke-width="22.12" stroke-miterlimit="10"/>
<path opacity="0.2" d="M112.991 3198.27C286.665 3433.26 503.483 3583.36 597.269 3533.51C691.055 3483.67 626.292 3252.76 452.619 3017.77C278.945 2782.77 62.1266 2632.67 -31.659 2682.52C-125.445 2732.36 -60.6824 2963.27 112.991 3198.27Z" stroke="url(#paint59_linear_645_3)" stroke-width="22.61" stroke-miterlimit="10"/>
<path opacity="0.2" d="M84.9453 3161.62C246.4 3404.62 457.922 3563.06 557.394 3515.5C656.865 3467.94 606.618 3232.4 445.163 2989.4C283.709 2746.4 72.1864 2587.97 -27.285 2635.52C-126.756 2683.08 -76.5092 2918.62 84.9453 3161.62Z" stroke="url(#paint60_linear_645_3)" stroke-width="23.1" stroke-miterlimit="10"/>
<path opacity="0.2" d="M56.6345 3124.03C205.667 3375.08 411.73 3542.16 516.889 3497.21C622.049 3452.26 586.483 3212.3 437.451 2961.25C288.419 2710.2 82.3559 2543.12 -22.8038 2588.07C-127.963 2633.03 -92.3977 2872.98 56.6345 3124.03Z" stroke="url(#paint61_linear_645_3)" stroke-width="23.59" stroke-miterlimit="10"/>
<path opacity="0.2" d="M28.6128 3086.19C165.112 3345.28 365.58 3521.21 476.369 3479.15C587.159 3437.09 566.317 3192.96 429.818 2933.87C293.318 2674.78 92.8508 2498.85 -17.9389 2540.91C-128.729 2582.97 -107.887 2827.1 28.6128 3086.19Z" stroke="url(#paint62_linear_645_3)" stroke-width="24.07" stroke-miterlimit="10"/>
<path opacity="0.2" d="M0.719898 3047.74C124.529 3314.87 319.197 3499.9 435.522 3461.01C551.848 3422.12 545.781 3174.05 421.972 2906.92C298.163 2639.79 103.495 2454.76 -12.8303 2493.65C-129.156 2532.54 -123.089 2780.62 0.719898 3047.74Z" stroke="url(#paint63_linear_645_3)" stroke-width="24.56" stroke-miterlimit="10"/>
<path opacity="0.2" d="M-26.8168 3009.11C84.2044 3284.25 272.878 3478.55 394.597 3443.08C516.315 3407.62 524.987 3155.82 413.966 2880.69C302.945 2605.55 114.272 2411.25 -7.44704 2446.72C-129.166 2482.18 -137.838 2733.98 -26.8168 3009.11Z" stroke="url(#paint64_linear_645_3)" stroke-width="25.05" stroke-miterlimit="10"/>
<path opacity="0.2" d="M-54.2137 2969.59C43.8251 3252.74 226.216 3456.5 353.168 3424.72C480.12 3392.93 503.559 3137.63 405.52 2854.49C307.481 2571.35 125.09 2367.59 -1.86179 2399.37C-128.814 2431.16 -152.253 2686.45 -54.2137 2969.59Z" stroke="url(#paint65_linear_645_3)" stroke-width="25.54" stroke-miterlimit="10"/>
<path opacity="0.2" d="M-81.1372 2930.1C3.86215 3221.19 179.763 3434.54 311.748 3406.62C443.732 3378.71 481.822 3120.1 396.822 2829.01C311.823 2537.92 135.923 2324.57 3.93766 2352.49C-128.047 2380.4 -166.137 2639.01 -81.1372 2930.1Z" stroke="url(#paint66_linear_645_3)" stroke-width="26.02" stroke-miterlimit="10"/>
<path opacity="0.2" d="M-107.747 2889.97C-35.9292 3188.98 133.194 3412.03 270 3388.18C406.806 3364.32 459.49 3102.59 387.672 2803.58C315.854 2504.57 146.731 2281.52 9.92536 2305.37C-126.881 2329.23 -179.564 2590.96 -107.747 2889.97Z" stroke="url(#paint67_linear_645_3)" stroke-width="26.51" stroke-miterlimit="10"/>
<path opacity="0.2" d="M-133.904 2849.85C-75.3086 3156.72 86.8186 3389.54 228.217 3369.88C369.616 3350.21 436.741 3085.5 378.146 2778.63C319.55 2471.77 157.423 2238.94 16.0247 2258.61C-125.374 2278.28 -192.499 2542.98 -133.904 2849.85Z" stroke="url(#paint68_linear_645_3)" stroke-width="27" stroke-miterlimit="10"/>
</g>
<defs>
<linearGradient id="paint0_linear_645_3" x1="731.001" y1="1685.38" x2="17.1767" y2="1587.44" gradientUnits="userSpaceOnUse">
<stop stop-color="white"/>
<stop offset="1" stop-color="#231F20"/>
</linearGradient>
<linearGradient id="paint1_linear_645_3" x1="750.951" y1="1623.42" x2="50.9182" y2="1530.73" gradientUnits="userSpaceOnUse">
<stop stop-color="white"/>
<stop offset="1" stop-color="#231F20"/>
</linearGradient>
<linearGradient id="paint2_linear_645_3" x1="774.419" y1="1559.51" x2="95.6229" y2="1473.2" gradientUnits="userSpaceOnUse">
<stop stop-color="white"/>
<stop offset="1" stop-color="#231F20"/>
</linearGradient>
<linearGradient id="paint3_linear_645_3" x1="794.971" y1="1494.8" x2="129.437" y2="1414" gradientUnits="userSpaceOnUse">
<stop stop-color="white"/>
<stop offset="1" stop-color="#231F20"/>
</linearGradient>
<linearGradient id="paint4_linear_645_3" x1="815.799" y1="1428.59" x2="163.103" y2="1353.52" gradientUnits="userSpaceOnUse">
<stop stop-color="white"/>
<stop offset="1" stop-color="#231F20"/>
</linearGradient>
<linearGradient id="paint5_linear_645_3" x1="836.995" y1="1360.44" x2="196.697" y2="1291.35" gradientUnits="userSpaceOnUse">
<stop stop-color="white"/>
<stop offset="1" stop-color="#231F20"/>
</linearGradient>
<linearGradient id="paint6_linear_645_3" x1="858.503" y1="1290.52" x2="230.087" y2="1227.76" gradientUnits="userSpaceOnUse">
<stop stop-color="white"/>
<stop offset="1" stop-color="#231F20"/>
</linearGradient>
<linearGradient id="paint7_linear_645_3" x1="876.596" y1="1217.34" x2="250.368" y2="1160.42" gradientUnits="userSpaceOnUse">
<stop stop-color="white"/>
<stop offset="1" stop-color="#231F20"/>
</linearGradient>
<linearGradient id="paint8_linear_645_3" x1="898.718" y1="1142.2" x2="282.961" y2="1092.51" gradientUnits="userSpaceOnUse">
<stop stop-color="white"/>
<stop offset="1" stop-color="#231F20"/>
</linearGradient>
<linearGradient id="paint9_linear_645_3" x1="921.191" y1="1064.88" x2="315.246" y2="1023.12" gradientUnits="userSpaceOnUse">
<stop stop-color="white"/>
<stop offset="1" stop-color="#231F20"/>
</linearGradient>
<linearGradient id="paint10_linear_645_3" x1="939.748" y1="982.546" x2="332.386" y2="948.962" gradientUnits="userSpaceOnUse">
<stop stop-color="white"/>
<stop offset="1" stop-color="#231F20"/>
</linearGradient>
<linearGradient id="paint11_linear_645_3" x1="962.643" y1="900.372" x2="363.31" y2="876.829" gradientUnits="userSpaceOnUse">
<stop stop-color="white"/>
<stop offset="1" stop-color="#231F20"/>
</linearGradient>
<linearGradient id="paint12_linear_645_3" x1="981.035" y1="812.85" x2="377.114" y2="800.638" gradientUnits="userSpaceOnUse">
<stop stop-color="white"/>
<stop offset="1" stop-color="#231F20"/>
</linearGradient>
<linearGradient id="paint13_linear_645_3" x1="998.983" y1="723.774" x2="388.475" y2="725.425" gradientUnits="userSpaceOnUse">
<stop stop-color="white"/>
<stop offset="1" stop-color="#231F20"/>
</linearGradient>
<linearGradient id="paint14_linear_645_3" x1="1016.18" y1="636.178" x2="396.71" y2="655.452" gradientUnits="userSpaceOnUse">
<stop stop-color="white"/>
<stop offset="1" stop-color="#231F20"/>
</linearGradient>
<linearGradient id="paint15_linear_645_3" x1="1026.93" y1="545.286" x2="380.77" y2="588.618" gradientUnits="userSpaceOnUse">
<stop stop-color="white"/>
<stop offset="1" stop-color="#231F20"/>
</linearGradient>
<linearGradient id="paint16_linear_645_3" x1="1036.08" y1="461.967" x2="357.972" y2="539.204" gradientUnits="userSpaceOnUse">
<stop stop-color="white"/>
<stop offset="1" stop-color="#231F20"/>
</linearGradient>
<linearGradient id="paint17_linear_645_3" x1="1043.99" y1="392.783" x2="328.366" y2="519.907" gradientUnits="userSpaceOnUse">
<stop stop-color="white"/>
<stop offset="1" stop-color="#231F20"/>
</linearGradient>
<linearGradient id="paint18_linear_645_3" x1="1044.69" y1="332.389" x2="266.373" y2="542.177" gradientUnits="userSpaceOnUse">
<stop stop-color="white"/>
<stop offset="1" stop-color="#231F20"/>
</linearGradient>
<linearGradient id="paint19_linear_645_3" x1="1038.45" y1="283.568" x2="174.462" y2="640.576" gradientUnits="userSpaceOnUse">
<stop stop-color="white"/>
<stop offset="1" stop-color="#231F20"/>
</linearGradient>
<linearGradient id="paint20_linear_645_3" x1="1034.53" y1="259.083" x2="121.536" y2="870.207" gradientUnits="userSpaceOnUse">
<stop stop-color="white"/>
<stop offset="1" stop-color="#231F20"/>
</linearGradient>
<linearGradient id="paint21_linear_645_3" x1="1035.65" y1="255.723" x2="247.333" y2="1246.68" gradientUnits="userSpaceOnUse">
<stop stop-color="white"/>
<stop offset="1" stop-color="#231F20"/>
</linearGradient>
<linearGradient id="paint22_linear_645_3" x1="1034.89" y1="257.581" x2="709.794" y2="1556.78" gradientUnits="userSpaceOnUse">
<stop stop-color="white"/>
<stop offset="1" stop-color="#231F20"/>
</linearGradient>
<linearGradient id="paint23_linear_645_3" x1="1032.8" y1="260.176" x2="1252.97" y2="1444.54" gradientUnits="userSpaceOnUse">
<stop stop-color="white"/>
<stop offset="1" stop-color="#231F20"/>
</linearGradient>
<linearGradient id="paint24_linear_645_3" x1="1038.11" y1="266.353" x2="1501.09" y2="1116.45" gradientUnits="userSpaceOnUse">
<stop stop-color="white"/>
<stop offset="1" stop-color="#231F20"/>
</linearGradient>
<linearGradient id="paint25_linear_645_3" x1="1050.11" y1="269.737" x2="1546.34" y2="858.035" gradientUnits="userSpaceOnUse">
<stop stop-color="white"/>
<stop offset="1" stop-color="#231F20"/>
</linearGradient>
<linearGradient id="paint26_linear_645_3" x1="1059.29" y1="265.339" x2="1534.74" y2="698.437" gradientUnits="userSpaceOnUse">
<stop stop-color="white"/>
<stop offset="1" stop-color="#231F20"/>
</linearGradient>
<linearGradient id="paint27_linear_645_3" x1="1073.27" y1="254.872" x2="1516.04" y2="591.679" gradientUnits="userSpaceOnUse">
<stop stop-color="white"/>
<stop offset="1" stop-color="#231F20"/>
</linearGradient>
<linearGradient id="paint28_linear_645_3" x1="1090.58" y1="238.895" x2="1503.83" y2="513.705" gradientUnits="userSpaceOnUse">
<stop stop-color="white"/>
<stop offset="1" stop-color="#231F20"/>
</linearGradient>
<linearGradient id="paint29_linear_645_3" x1="1103.69" y1="216.529" x2="1501.02" y2="454.615" gradientUnits="userSpaceOnUse">
<stop stop-color="white"/>
<stop offset="1" stop-color="#231F20"/>
</linearGradient>
<linearGradient id="paint30_linear_645_3" x1="1125.43" y1="189.757" x2="1505.6" y2="399.241" gradientUnits="userSpaceOnUse">
<stop stop-color="white"/>
<stop offset="1" stop-color="#231F20"/>
</linearGradient>
<linearGradient id="paint31_linear_645_3" x1="1142.27" y1="158.837" x2="1516.71" y2="351.353" gradientUnits="userSpaceOnUse">
<stop stop-color="white"/>
<stop offset="1" stop-color="#231F20"/>
</linearGradient>
<linearGradient id="paint32_linear_645_3" x1="1649.08" y1="4080" x2="-113.055" y2="3809.98" gradientUnits="userSpaceOnUse">
<stop stop-color="white"/>
<stop offset="1" stop-color="#231F20"/>
</linearGradient>
<linearGradient id="paint33_linear_645_3" x1="1607.25" y1="4071.35" x2="-96.9543" y2="3746.76" gradientUnits="userSpaceOnUse">
<stop stop-color="white"/>
<stop offset="1" stop-color="#231F20"/>
</linearGradient>
<linearGradient id="paint34_linear_645_3" x1="1564.59" y1="4064.27" x2="-78.0453" y2="3687.2" gradientUnits="userSpaceOnUse">
<stop stop-color="white"/>
<stop offset="1" stop-color="#231F20"/>
</linearGradient>
<linearGradient id="paint35_linear_645_3" x1="1522.09" y1="4037.8" x2="-74.3009" y2="3606.11" gradientUnits="userSpaceOnUse">
<stop stop-color="white"/>
<stop offset="1" stop-color="#231F20"/>
</linearGradient>
<linearGradient id="paint36_linear_645_3" x1="1477.76" y1="4034.03" x2="-49.7406" y2="3554.9" gradientUnits="userSpaceOnUse">
<stop stop-color="white"/>
<stop offset="1" stop-color="#231F20"/>
</linearGradient>
<linearGradient id="paint37_linear_645_3" x1="1435.19" y1="4011.06" x2="-38.0707" y2="3481.41" gradientUnits="userSpaceOnUse">
<stop stop-color="white"/>
<stop offset="1" stop-color="#231F20"/>
</linearGradient>
<linearGradient id="paint38_linear_645_3" x1="1387.15" y1="4011.21" x2="-10.5662" y2="3440.99" gradientUnits="userSpaceOnUse">
<stop stop-color="white"/>
<stop offset="1" stop-color="#231F20"/>
</linearGradient>
<linearGradient id="paint39_linear_645_3" x1="1343.49" y1="3991.75" x2="6.70241" y2="3378.03" gradientUnits="userSpaceOnUse">
<stop stop-color="white"/>
<stop offset="1" stop-color="#231F20"/>
</linearGradient>
<linearGradient id="paint40_linear_645_3" x1="1299.13" y1="3974.3" x2="26.3867" y2="3320.77" gradientUnits="userSpaceOnUse">
<stop stop-color="white"/>
<stop offset="1" stop-color="#231F20"/>
</linearGradient>
<linearGradient id="paint41_linear_645_3" x1="1253.03" y1="3959.01" x2="47.0235" y2="3269.75" gradientUnits="userSpaceOnUse">
<stop stop-color="white"/>
<stop offset="1" stop-color="#231F20"/>
</linearGradient>
<linearGradient id="paint42_linear_645_3" x1="1205.56" y1="3945.65" x2="67.9589" y2="3225.61" gradientUnits="userSpaceOnUse">
<stop stop-color="white"/>
<stop offset="1" stop-color="#231F20"/>
</linearGradient>
<linearGradient id="paint43_linear_645_3" x1="1155.2" y1="3934.48" x2="87.2483" y2="3188.49" gradientUnits="userSpaceOnUse">
<stop stop-color="white"/>
<stop offset="1" stop-color="#231F20"/>
</linearGradient>
<linearGradient id="paint44_linear_645_3" x1="1117.52" y1="3903.88" x2="106.547" y2="3126.23" gradientUnits="userSpaceOnUse">
<stop stop-color="white"/>
<stop offset="1" stop-color="#231F20"/>
</linearGradient>
<linearGradient id="paint45_linear_645_3" x1="1062.36" y1="3897.29" x2="122.167" y2="3103.21" gradientUnits="userSpaceOnUse">
<stop stop-color="white"/>
<stop offset="1" stop-color="#231F20"/>
</linearGradient>
<linearGradient id="paint46_linear_645_3" x1="1021.54" y1="3871.24" x2="139.349" y2="3054.48" gradientUnits="userSpaceOnUse">
<stop stop-color="white"/>
<stop offset="1" stop-color="#231F20"/>
</linearGradient>
<linearGradient id="paint47_linear_645_3" x1="979.382" y1="3847.63" x2="155.046" y2="3012.38" gradientUnits="userSpaceOnUse">
<stop stop-color="white"/>
<stop offset="1" stop-color="#231F20"/>
</linearGradient>
<linearGradient id="paint48_linear_645_3" x1="934.729" y1="3826.49" x2="167.64" y2="2976.62" gradientUnits="userSpaceOnUse">
<stop stop-color="white"/>
<stop offset="1" stop-color="#231F20"/>
</linearGradient>
<linearGradient id="paint49_linear_645_3" x1="887.325" y1="3807.79" x2="176.143" y2="2946.96" gradientUnits="userSpaceOnUse">
<stop stop-color="white"/>
<stop offset="1" stop-color="#231F20"/>
</linearGradient>
<linearGradient id="paint50_linear_645_3" x1="836.444" y1="3791.39" x2="179.353" y2="2922.9" gradientUnits="userSpaceOnUse">
<stop stop-color="white"/>
<stop offset="1" stop-color="#231F20"/>
</linearGradient>
<linearGradient id="paint51_linear_645_3" x1="808.638" y1="3756.77" x2="195.425" y2="2871.59" gradientUnits="userSpaceOnUse">
<stop stop-color="white"/>
<stop offset="1" stop-color="#231F20"/>
</linearGradient>
<linearGradient id="paint52_linear_645_3" x1="751.27" y1="3745.54" x2="188.442" y2="2857.79" gradientUnits="userSpaceOnUse">
<stop stop-color="white"/>
<stop offset="1" stop-color="#231F20"/>
</linearGradient>
<linearGradient id="paint53_linear_645_3" x1="718.018" y1="3716" x2="196.113" y2="2815.8" gradientUnits="userSpaceOnUse">
<stop stop-color="white"/>
<stop offset="1" stop-color="#231F20"/>
</linearGradient>
<linearGradient id="paint54_linear_645_3" x1="682.839" y1="3689.34" x2="200.17" y2="2778.33" gradientUnits="userSpaceOnUse">
<stop stop-color="white"/>
<stop offset="1" stop-color="#231F20"/>
</linearGradient>
<linearGradient id="paint55_linear_645_3" x1="644.604" y1="3665.2" x2="199.607" y2="2744.57" gradientUnits="userSpaceOnUse">
<stop stop-color="white"/>
<stop offset="1" stop-color="#231F20"/>
</linearGradient>
<linearGradient id="paint56_linear_645_3" x1="603.008" y1="3643.37" x2="193.985" y2="2714.02" gradientUnits="userSpaceOnUse">
<stop stop-color="white"/>
<stop offset="1" stop-color="#231F20"/>
</linearGradient>
<linearGradient id="paint57_linear_645_3" x1="558.062" y1="3623.95" x2="183.37" y2="2686.47" gradientUnits="userSpaceOnUse">
<stop stop-color="white"/>
<stop offset="1" stop-color="#231F20"/>
</linearGradient>
<linearGradient id="paint58_linear_645_3" x1="544.165" y1="3588.13" x2="197.708" y2="2631.28" gradientUnits="userSpaceOnUse">
<stop stop-color="white"/>
<stop offset="1" stop-color="#231F20"/>
</linearGradient>
<linearGradient id="paint59_linear_645_3" x1="492.706" y1="3573.07" x2="177.683" y2="2608.68" gradientUnits="userSpaceOnUse">
<stop stop-color="white"/>
<stop offset="1" stop-color="#231F20"/>
</linearGradient>
<linearGradient id="paint60_linear_645_3" x1="473.825" y1="3542.28" x2="185.156" y2="2558.79" gradientUnits="userSpaceOnUse">
<stop stop-color="white"/>
<stop offset="1" stop-color="#231F20"/>
</linearGradient>
<linearGradient id="paint61_linear_645_3" x1="415.464" y1="3531.03" x2="155.66" y2="2539.89" gradientUnits="userSpaceOnUse">
<stop stop-color="white"/>
<stop offset="1" stop-color="#231F20"/>
</linearGradient>
<linearGradient id="paint62_linear_645_3" x1="390.706" y1="3504.01" x2="155.462" y2="2493.53" gradientUnits="userSpaceOnUse">
<stop stop-color="white"/>
<stop offset="1" stop-color="#231F20"/>
</linearGradient>
<linearGradient id="paint63_linear_645_3" x1="363.65" y1="3479.44" x2="152.559" y2="2449.34" gradientUnits="userSpaceOnUse">
<stop stop-color="white"/>
<stop offset="1" stop-color="#231F20"/>
</linearGradient>
<linearGradient id="paint64_linear_645_3" x1="333.848" y1="3456.41" x2="146.067" y2="2406.43" gradientUnits="userSpaceOnUse">
<stop stop-color="white"/>
<stop offset="1" stop-color="#231F20"/>
</linearGradient>
<linearGradient id="paint65_linear_645_3" x1="301.39" y1="3435.05" x2="136.743" y2="2364.8" gradientUnits="userSpaceOnUse">
<stop stop-color="white"/>
<stop offset="1" stop-color="#231F20"/>
</linearGradient>
<linearGradient id="paint66_linear_645_3" x1="266.48" y1="3415.42" x2="124.338" y2="2324.56" gradientUnits="userSpaceOnUse">
<stop stop-color="white"/>
<stop offset="1" stop-color="#231F20"/>
</linearGradient>
<linearGradient id="paint67_linear_645_3" x1="228.8" y1="3396.75" x2="108.878" y2="2284.87" gradientUnits="userSpaceOnUse">
<stop stop-color="white"/>
<stop offset="1" stop-color="#231F20"/>
</linearGradient>
<linearGradient id="paint68_linear_645_3" x1="188.737" y1="3379.49" x2="90.5964" y2="2246.22" gradientUnits="userSpaceOnUse">
<stop stop-color="white"/>
<stop offset="1" stop-color="#231F20"/>
</linearGradient>
</defs>
</svg>
