<svg width="924" height="289" viewBox="0 0 924 289" fill="none" xmlns="http://www.w3.org/2000/svg">
<path opacity="0.6" d="M159.676 31.9752C-109.266 49.7471 -365.245 112.995 -412.068 173.244C-458.891 233.493 -278.828 267.927 -9.88562 250.155C259.057 232.383 515.035 169.135 561.858 108.886C608.682 48.6376 428.618 14.2033 159.676 31.9752Z" stroke="url(#paint0_linear_553_1828)" stroke-opacity="0.2" stroke-width="1.1" stroke-miterlimit="10"/>
<path opacity="0.6" d="M179.765 36.5391C-83.5349 56.2653 -333.268 119.578 -378.029 177.953C-422.791 236.327 -245.63 267.658 17.6699 247.931C280.97 228.205 530.703 164.892 575.465 106.518C620.226 48.1434 443.065 16.8129 179.765 36.5391Z" stroke="url(#paint1_linear_553_1828)" stroke-opacity="0.2" stroke-width="2.2" stroke-miterlimit="10"/>
<path opacity="0.6" d="M199.813 41.1489C-57.8667 62.8529 -301.377 126.259 -344.082 182.77C-386.788 239.281 -212.517 267.498 45.163 245.794C302.843 224.09 546.353 160.684 589.058 104.173C631.764 47.6618 457.493 19.4449 199.813 41.1489Z" stroke="url(#paint2_linear_553_1828)" stroke-opacity="0.2" stroke-width="3.29" stroke-miterlimit="10"/>
<path opacity="0.6" d="M219.969 45.6446C-32.0729 69.2963 -269.363 132.783 -310.034 187.445C-350.705 242.108 -179.355 267.247 72.6865 243.595C324.728 219.944 562.019 156.457 602.69 101.795C643.361 47.1322 472.011 21.9929 219.969 45.6446Z" stroke="url(#paint3_linear_553_1828)" stroke-opacity="0.2" stroke-width="4.39" stroke-miterlimit="10"/>
<path opacity="0.6" d="M240.152 50.1102C-6.25736 75.7084 -237.344 139.286 -275.995 192.114C-314.646 244.943 -146.225 267.018 100.185 241.419C346.594 215.821 577.68 152.244 616.331 99.4152C654.982 46.5865 486.561 24.5119 240.152 50.1102Z" stroke="url(#paint4_linear_553_1828)" stroke-opacity="0.2" stroke-width="5.49" stroke-miterlimit="10"/>
<path opacity="0.6" d="M260.308 54.6064C19.5115 82.1734 -205.395 145.873 -242.035 196.884C-278.675 247.895 -113.174 266.899 127.623 239.332C368.419 211.765 593.326 148.066 629.966 97.0549C666.606 46.0442 501.105 27.0394 260.308 54.6064Z" stroke="url(#paint5_linear_553_1828)" stroke-opacity="0.2" stroke-width="6.59" stroke-miterlimit="10"/>
<path opacity="0.6" d="M280.477 59.0849C45.2816 88.6268 -173.466 152.469 -208.11 201.68C-242.754 250.891 -80.1743 266.836 155.021 237.294C390.216 207.752 608.964 143.91 643.608 94.6992C678.252 45.4881 515.672 29.5431 280.477 59.0849Z" stroke="url(#paint6_linear_553_1828)" stroke-opacity="0.2" stroke-width="7.68" stroke-miterlimit="10"/>
<path opacity="0.6" d="M300.703 63.497C71.1086 95.0035 -141.496 158.995 -174.162 206.426C-206.829 253.856 -47.1867 266.766 182.408 235.259C412.002 203.753 624.607 139.761 657.273 92.3304C689.94 44.8996 530.298 31.9905 300.703 63.497Z" stroke="url(#paint7_linear_553_1828)" stroke-opacity="0.2" stroke-width="8.78" stroke-miterlimit="10"/>
<path opacity="0.6" d="M321.033 67.7927C97.0511 101.238 -109.421 165.376 -140.135 211.049C-170.848 256.723 -14.1736 266.636 209.808 233.191C433.79 199.746 640.262 135.608 670.976 89.9346C701.69 44.261 545.015 34.3478 321.033 67.7927Z" stroke="url(#paint8_linear_553_1828)" stroke-opacity="0.2" stroke-width="9.88" stroke-miterlimit="10"/>
<path opacity="0.6" d="M341.342 72.1079C122.946 107.515 -77.4228 171.837 -106.196 215.776C-134.968 259.715 18.7511 266.632 237.146 231.225C455.542 195.818 655.911 131.495 684.684 87.5564C713.456 43.6175 559.737 36.701 341.342 72.1079Z" stroke="url(#paint9_linear_553_1828)" stroke-opacity="0.2" stroke-width="10.98" stroke-miterlimit="10"/>
<path opacity="0.6" d="M361.678 76.3765C148.859 113.747 -45.4315 178.277 -72.2812 220.507C-99.131 262.737 51.6269 266.677 264.446 229.306C477.265 191.935 671.555 127.406 698.405 85.1755C725.255 42.9452 574.497 39.0058 361.678 76.3765Z" stroke="url(#paint10_linear_553_1828)" stroke-opacity="0.2" stroke-width="12.07" stroke-miterlimit="10"/>
<path opacity="0.6" d="M382.023 80.6155C174.762 119.961 -13.4778 184.731 -38.4219 225.283C-63.3661 265.835 84.431 266.813 291.692 227.468C498.953 188.122 687.193 123.353 712.137 82.8004C737.081 42.2482 589.284 41.27 382.023 80.6155Z" stroke="url(#paint11_linear_553_1828)" stroke-opacity="0.2" stroke-width="13.17" stroke-miterlimit="10"/>
<path opacity="0.6" d="M402.367 84.8369C200.644 126.173 18.4274 191.22 -4.62458 230.124C-27.6766 269.027 117.165 267.055 318.888 225.718C520.612 184.382 702.828 119.335 725.88 80.4318C748.932 41.5284 604.09 43.5006 402.367 84.8369Z" stroke="url(#paint12_linear_553_1828)" stroke-opacity="0.2" stroke-width="14.27" stroke-miterlimit="10"/>
<path opacity="0.6" d="M422.857 88.8784C226.679 132.169 50.4677 197.496 29.277 234.79C8.08628 272.084 149.941 267.223 346.118 223.932C542.296 180.641 718.508 115.315 739.698 78.0206C760.889 40.7265 619.034 45.5878 422.857 88.8784Z" stroke="url(#paint13_linear_553_1828)" stroke-opacity="0.2" stroke-width="15.37" stroke-miterlimit="10"/>
<path opacity="0.6" d="M443.324 92.9028C252.664 138.17 82.425 203.824 63.0841 239.545C43.7433 275.267 182.625 267.529 373.284 222.262C563.944 176.995 734.183 111.341 753.524 75.6193C772.864 39.8978 633.983 47.6359 443.324 92.9028Z" stroke="url(#paint14_linear_553_1828)" stroke-opacity="0.2" stroke-width="16.46" stroke-miterlimit="10"/>
<path opacity="0.6" d="M463.779 96.8894C278.61 144.151 114.312 210.181 96.8105 244.37C79.3087 278.56 215.23 267.964 400.4 220.702C585.569 173.441 749.867 107.411 767.369 73.2211C784.87 39.0311 648.949 49.6278 463.779 96.8894Z" stroke="url(#paint15_linear_553_1828)" stroke-opacity="0.2" stroke-width="17.56" stroke-miterlimit="10"/>
<path opacity="0.6" d="M484.305 100.746C304.614 149.991 146.235 216.424 130.555 249.129C114.875 281.834 247.833 268.426 427.524 219.181C607.215 169.937 765.594 103.504 781.274 70.7986C796.954 38.0937 663.996 51.5018 484.305 100.746Z" stroke="url(#paint16_linear_553_1828)" stroke-opacity="0.2" stroke-width="18.66" stroke-miterlimit="10"/>
<path opacity="0.6" d="M504.845 104.514C330.607 155.749 178.119 222.633 164.254 253.903C150.389 285.172 280.397 268.987 454.635 217.752C628.873 166.516 781.361 99.6328 795.226 68.3631C809.091 37.0935 679.083 53.2788 504.845 104.514Z" stroke="url(#paint17_linear_553_1828)" stroke-opacity="0.2" stroke-width="19.76" stroke-miterlimit="10"/>
<path opacity="0.6" d="M525.347 108.222C356.528 161.469 209.909 228.86 197.863 258.745C185.816 288.63 312.905 269.691 481.724 216.444C650.542 163.197 797.162 95.806 809.208 65.9213C821.254 36.0367 694.165 54.9755 525.347 108.222Z" stroke="url(#paint18_linear_553_1828)" stroke-opacity="0.2" stroke-width="20.85" stroke-miterlimit="10"/>
<path opacity="0.6" d="M545.833 111.835C382.403 167.103 241.634 235.054 231.417 263.607C221.2 292.16 345.403 270.503 508.832 215.234C672.262 159.966 813.03 92.0154 823.248 63.4624C833.465 34.9094 709.262 56.5665 545.833 111.835Z" stroke="url(#paint19_linear_553_1828)" stroke-opacity="0.2" stroke-width="21.95" stroke-miterlimit="10"/>
<path opacity="0.6" d="M566.32 115.309C408.25 172.598 273.324 241.152 264.954 268.428C256.584 295.704 377.94 271.373 536.01 214.084C694.08 156.794 829.006 88.24 837.376 60.9641C845.746 33.6881 724.39 58.019 566.32 115.309Z" stroke="url(#paint20_linear_553_1828)" stroke-opacity="0.2" stroke-width="23.05" stroke-miterlimit="10"/>
<path opacity="0.6" d="M586.687 118.729C433.933 178.07 304.85 247.291 298.373 273.34C291.896 299.389 410.477 272.402 563.232 213.061C715.986 153.721 845.069 84.4998 851.546 58.4507C858.023 32.4016 739.442 59.3894 586.687 118.729Z" stroke="url(#paint21_linear_553_1828)" stroke-opacity="0.2" stroke-width="24.15" stroke-miterlimit="10"/>
<path opacity="0.6" d="M606.952 122.06C459.474 183.468 336.256 253.408 331.735 278.275C327.214 303.142 443.104 273.52 590.581 212.113C738.058 150.705 861.277 80.7654 865.798 55.898C870.318 31.0307 754.429 60.6525 606.952 122.06Z" stroke="url(#paint22_linear_553_1828)" stroke-opacity="0.2" stroke-width="25.24" stroke-miterlimit="10"/>
<path opacity="0.6" d="M627.088 125.288C484.844 188.777 367.525 259.476 365.048 283.2C362.572 306.923 475.876 274.687 618.12 211.198C760.363 147.709 877.682 77.0096 880.159 53.2863C882.635 29.5629 769.332 61.7992 627.088 125.288Z" stroke="url(#paint23_linear_553_1828)" stroke-opacity="0.2" stroke-width="26.34" stroke-miterlimit="10"/>
<path opacity="0.6" d="M646.945 128.529C509.887 194.142 398.537 265.647 398.238 288.239C397.939 310.832 508.804 275.958 645.862 210.345C782.921 144.733 894.271 73.2278 894.57 50.6349C894.869 28.042 784.003 62.9164 646.945 128.529Z" stroke="url(#paint24_linear_553_1828)" stroke-opacity="0.2" stroke-width="27.44" stroke-miterlimit="10"/>
<path opacity="0.6" d="M666.527 131.757C534.614 199.523 429.334 271.852 431.378 293.31C433.423 314.767 542.017 277.228 673.93 209.462C805.844 141.697 911.124 69.3674 909.079 47.9098C907.035 26.4523 798.441 63.9921 666.527 131.757Z" stroke="url(#paint25_linear_553_1828)" stroke-opacity="0.2" stroke-width="28.54" stroke-miterlimit="10"/>
<path opacity="0.6" d="M685.668 135.106C558.86 205.077 459.796 278.238 464.402 298.515C469.008 318.791 575.54 278.506 702.348 208.535C829.156 138.563 928.22 65.4028 923.614 45.1261C919.007 24.8495 812.475 65.1349 685.668 135.106Z" stroke="url(#paint26_linear_553_1828)" stroke-opacity="0.2" stroke-width="29.63" stroke-miterlimit="10"/>
<path opacity="0.6" d="M704.43 138.537C582.7 210.745 490.031 284.697 497.448 303.713C504.865 322.729 609.56 279.608 731.29 207.399C853.02 135.191 945.689 61.2389 938.272 42.2231C930.855 23.2073 826.16 66.3284 704.43 138.537Z" stroke="url(#paint27_linear_553_1828)" stroke-opacity="0.2" stroke-width="30.73" stroke-miterlimit="10"/>
<path opacity="0.6" d="M722.572 142.283C605.914 216.794 519.886 291.475 530.421 309.087C540.957 326.699 644.067 280.572 760.724 206.06C877.381 131.549 963.41 56.8679 952.874 39.2561C942.339 21.6444 839.229 67.7709 722.572 142.283Z" stroke="url(#paint28_linear_553_1828)" stroke-opacity="0.2" stroke-width="31.83" stroke-miterlimit="10"/>
<path opacity="0.6" d="M740.192 146.326C628.621 223.182 549.502 298.472 563.475 314.49C577.447 330.508 679.22 281.188 790.791 204.332C902.361 127.476 981.48 52.1863 967.508 36.1683C953.535 20.1503 851.763 69.4695 740.192 146.326Z" stroke="url(#paint29_linear_553_1828)" stroke-opacity="0.2" stroke-width="32.93" stroke-miterlimit="10"/>
<path opacity="0.6" d="M981.982 33.0371C964.233 18.8644 863.573 71.6203 757.151 150.871C650.73 230.121 578.846 305.855 596.595 320.028C614.344 334.201 715.004 281.445 821.425 202.194C927.847 122.944 999.731 47.2097 981.982 33.0371Z" stroke="url(#paint30_linear_553_1828)" stroke-opacity="0.2" stroke-width="34.02" stroke-miterlimit="10"/>
<path opacity="0.6" d="M996.297 29.8283C974.46 17.7949 874.738 74.2509 773.56 155.926C672.382 237.602 608.063 313.568 629.899 325.601C651.736 337.635 751.459 281.179 852.637 199.503C953.815 117.828 1018.13 41.8617 996.297 29.8283Z" stroke="url(#paint31_linear_553_1828)" stroke-opacity="0.2" stroke-width="35.12" stroke-miterlimit="10"/>
<defs>
<linearGradient id="paint0_linear_553_1828" x1="294.573" y1="311.796" x2="-28.4563" y2="-119.442" gradientUnits="userSpaceOnUse">
<stop stop-color="white"/>
<stop offset="1" stop-color="#231F20"/>
</linearGradient>
<linearGradient id="paint1_linear_553_1828" x1="321.671" y1="302.095" x2="1.12422" y2="-118.277" gradientUnits="userSpaceOnUse">
<stop stop-color="white"/>
<stop offset="1" stop-color="#231F20"/>
</linearGradient>
<linearGradient id="paint2_linear_553_1828" x1="351.259" y1="293.54" x2="36.4674" y2="-111.334" gradientUnits="userSpaceOnUse">
<stop stop-color="white"/>
<stop offset="1" stop-color="#231F20"/>
</linearGradient>
<linearGradient id="paint3_linear_553_1828" x1="379.4" y1="283.266" x2="66.5186" y2="-110.676" gradientUnits="userSpaceOnUse">
<stop stop-color="white"/>
<stop offset="1" stop-color="#231F20"/>
</linearGradient>
<linearGradient id="paint4_linear_553_1828" x1="408.081" y1="272.654" x2="96.6396" y2="-110.308" gradientUnits="userSpaceOnUse">
<stop stop-color="white"/>
<stop offset="1" stop-color="#231F20"/>
</linearGradient>
<linearGradient id="paint5_linear_553_1828" x1="437.463" y1="261.611" x2="126.97" y2="-110.29" gradientUnits="userSpaceOnUse">
<stop stop-color="white"/>
<stop offset="1" stop-color="#231F20"/>
</linearGradient>
<linearGradient id="paint6_linear_553_1828" x1="467.471" y1="250.163" x2="157.293" y2="-110.515" gradientUnits="userSpaceOnUse">
<stop stop-color="white"/>
<stop offset="1" stop-color="#231F20"/>
</linearGradient>
<linearGradient id="paint7_linear_553_1828" x1="496.375" y1="235.964" x2="181.279" y2="-118.481" gradientUnits="userSpaceOnUse">
<stop stop-color="white"/>
<stop offset="1" stop-color="#231F20"/>
</linearGradient>
<linearGradient id="paint8_linear_553_1828" x1="528.063" y1="223.164" x2="211.655" y2="-119.615" gradientUnits="userSpaceOnUse">
<stop stop-color="white"/>
<stop offset="1" stop-color="#231F20"/>
</linearGradient>
<linearGradient id="paint9_linear_553_1828" x1="560.507" y1="209.844" x2="241.814" y2="-120.704" gradientUnits="userSpaceOnUse">
<stop stop-color="white"/>
<stop offset="1" stop-color="#231F20"/>
</linearGradient>
<linearGradient id="paint10_linear_553_1828" x1="592.005" y1="192.971" x2="264.31" y2="-130.195" gradientUnits="userSpaceOnUse">
<stop stop-color="white"/>
<stop offset="1" stop-color="#231F20"/>
</linearGradient>
<linearGradient id="paint11_linear_553_1828" x1="625.925" y1="178.321" x2="293.335" y2="-130.722" gradientUnits="userSpaceOnUse">
<stop stop-color="white"/>
<stop offset="1" stop-color="#231F20"/>
</linearGradient>
<linearGradient id="paint12_linear_553_1828" x1="658.653" y1="159.714" x2="312.998" y2="-139.363" gradientUnits="userSpaceOnUse">
<stop stop-color="white"/>
<stop offset="1" stop-color="#231F20"/>
</linearGradient>
<linearGradient id="paint13_linear_553_1828" x1="691.525" y1="140.393" x2="330.181" y2="-146.298" gradientUnits="userSpaceOnUse">
<stop stop-color="white"/>
<stop offset="1" stop-color="#231F20"/>
</linearGradient>
<linearGradient id="paint14_linear_553_1828" x1="723.593" y1="121.163" x2="343.412" y2="-149.233" gradientUnits="userSpaceOnUse">
<stop stop-color="white"/>
<stop offset="1" stop-color="#231F20"/>
</linearGradient>
<linearGradient id="paint15_linear_553_1828" x1="752.849" y1="97.6595" x2="340.979" y2="-156.381" gradientUnits="userSpaceOnUse">
<stop stop-color="white"/>
<stop offset="1" stop-color="#231F20"/>
</linearGradient>
<linearGradient id="paint16_linear_553_1828" x1="779.263" y1="75.7558" x2="330.688" y2="-151.831" gradientUnits="userSpaceOnUse">
<stop stop-color="white"/>
<stop offset="1" stop-color="#231F20"/>
</linearGradient>
<linearGradient id="paint17_linear_553_1828" x1="801.377" y1="57.7285" x2="312.85" y2="-127.284" gradientUnits="userSpaceOnUse">
<stop stop-color="white"/>
<stop offset="1" stop-color="#231F20"/>
</linearGradient>
<linearGradient id="paint18_linear_553_1828" x1="817.161" y1="38.8821" x2="277.033" y2="-82.7382" gradientUnits="userSpaceOnUse">
<stop stop-color="white"/>
<stop offset="1" stop-color="#231F20"/>
</linearGradient>
<linearGradient id="paint19_linear_553_1828" x1="826.063" y1="20.2371" x2="233.667" y2="-2.92595" gradientUnits="userSpaceOnUse">
<stop stop-color="white"/>
<stop offset="1" stop-color="#231F20"/>
</linearGradient>
<linearGradient id="paint20_linear_553_1828" x1="830.079" y1="10.4903" x2="228.882" y2="125.269" gradientUnits="userSpaceOnUse">
<stop stop-color="white"/>
<stop offset="1" stop-color="#231F20"/>
</linearGradient>
<linearGradient id="paint21_linear_553_1828" x1="831.574" y1="9.98679" x2="295.85" y2="268.857" gradientUnits="userSpaceOnUse">
<stop stop-color="white"/>
<stop offset="1" stop-color="#231F20"/>
</linearGradient>
<linearGradient id="paint22_linear_553_1828" x1="830.669" y1="10.1961" x2="412.632" y2="372.561" gradientUnits="userSpaceOnUse">
<stop stop-color="white"/>
<stop offset="1" stop-color="#231F20"/>
</linearGradient>
<linearGradient id="paint23_linear_553_1828" x1="828.822" y1="9.97305" x2="537.742" y2="414.644" gradientUnits="userSpaceOnUse">
<stop stop-color="white"/>
<stop offset="1" stop-color="#231F20"/>
</linearGradient>
<linearGradient id="paint24_linear_553_1828" x1="830.26" y1="14.5972" x2="646.529" y2="410.077" gradientUnits="userSpaceOnUse">
<stop stop-color="white"/>
<stop offset="1" stop-color="#231F20"/>
</linearGradient>
<linearGradient id="paint25_linear_553_1828" x1="836.202" y1="21.6852" x2="727.75" y2="385.839" gradientUnits="userSpaceOnUse">
<stop stop-color="white"/>
<stop offset="1" stop-color="#231F20"/>
</linearGradient>
<linearGradient id="paint26_linear_553_1828" x1="842.525" y1="24.8846" x2="782.116" y2="361.307" gradientUnits="userSpaceOnUse">
<stop stop-color="white"/>
<stop offset="1" stop-color="#231F20"/>
</linearGradient>
<linearGradient id="paint27_linear_553_1828" x1="853.118" y1="28.5609" x2="824.457" y2="339.571" gradientUnits="userSpaceOnUse">
<stop stop-color="white"/>
<stop offset="1" stop-color="#231F20"/>
</linearGradient>
<linearGradient id="paint28_linear_553_1828" x1="867.005" y1="32.1563" x2="859.982" y2="322.392" gradientUnits="userSpaceOnUse">
<stop stop-color="white"/>
<stop offset="1" stop-color="#231F20"/>
</linearGradient>
<linearGradient id="paint29_linear_553_1828" x1="880.138" y1="31.6165" x2="888.437" y2="310.988" gradientUnits="userSpaceOnUse">
<stop stop-color="white"/>
<stop offset="1" stop-color="#231F20"/>
</linearGradient>
<linearGradient id="paint30_linear_553_1828" x1="899.286" y1="33.9975" x2="919.006" y2="301.542" gradientUnits="userSpaceOnUse">
<stop stop-color="white"/>
<stop offset="1" stop-color="#231F20"/>
</linearGradient>
<linearGradient id="paint31_linear_553_1828" x1="916.71" y1="32.6049" x2="945.796" y2="296.188" gradientUnits="userSpaceOnUse">
<stop stop-color="white"/>
<stop offset="1" stop-color="#231F20"/>
</linearGradient>
</defs>
</svg>
